<svg width="82" height="88" viewBox="0 0 82 88" fill="none" xmlns="http://www.w3.org/2000/svg">
<path d="M71.2243 67.0867H10.7762C8.25864 67.0867 6.21777 69.1275 6.21777 71.6451V76.4412C6.21777 78.9588 8.25864 80.9997 10.7762 80.9997H71.2243C73.7418 80.9997 75.7827 78.9588 75.7827 76.4412V71.6451C75.7827 69.1275 73.7418 67.0867 71.2243 67.0867Z" stroke="#C4B2C7" stroke-width="2" stroke-linecap="round" stroke-linejoin="round"/>
<path d="M16.6518 80.9997H13.1736C11.2526 80.9997 9.69531 82.557 9.69531 84.4779C9.69531 86.3989 11.2526 87.9562 13.1736 87.9562H16.6518C18.5728 87.9562 20.1301 86.3989 20.1301 84.4779C20.1301 82.557 18.5728 80.9997 16.6518 80.9997Z" fill="#C4B2C7"/>
<path d="M68.8256 80.9997H65.3474C63.4264 80.9997 61.8691 82.557 61.8691 84.4779C61.8691 86.3989 63.4264 87.9562 65.3474 87.9562H68.8256C70.7466 87.9562 72.3039 86.3989 72.3039 84.4779C72.3039 82.557 70.7466 80.9997 68.8256 80.9997Z" fill="#C4B2C7"/>
<path d="M6.21737 27.0869H1" stroke="#C4B2C7" stroke-width="2" stroke-linecap="round" stroke-linejoin="round"/>
<path d="M1 21.8695V32.3042" stroke="#C4B2C7" stroke-width="2" stroke-linecap="round" stroke-linejoin="round"/>
<path d="M75.7822 27.0869H80.9996" stroke="#C4B2C7" stroke-width="2" stroke-linecap="round" stroke-linejoin="round"/>
<path d="M81 21.8695V32.3042" stroke="#C4B2C7" stroke-width="2" stroke-linecap="round" stroke-linejoin="round"/>
<path d="M55.184 6.21735H61.4699C64.8017 6.22735 67.9943 7.55542 70.3502 9.9115C72.7061 12.2676 74.0339 15.4602 74.0437 18.7921V64.4788C74.0417 65.1701 73.7662 65.8324 73.2774 66.3212C72.7886 66.81 72.1263 67.0855 71.435 67.0875H10.5657C9.87447 67.0855 9.21211 66.81 8.72333 66.3212C8.23454 65.8324 7.95905 65.1701 7.95703 64.4788V18.7921C7.9669 15.4603 9.29481 12.2678 11.6507 9.91191C14.0066 7.55599 17.1991 6.22808 20.5309 6.21822H25.0773" stroke="#C4B2C7" stroke-width="2" stroke-linecap="round" stroke-linejoin="round"/>
<path d="M67.0868 20.1303V40.652H14.9131" stroke="#C4B2C7" stroke-width="2" stroke-linecap="round" stroke-linejoin="round"/>
<path d="M14.9131 60.1297H25.3478V56.6514" stroke="#C4B2C7" stroke-width="2" stroke-linecap="round" stroke-linejoin="round"/>
<path d="M56.6514 60.1297H67.0861V56.6514" stroke="#C4B2C7" stroke-width="2" stroke-linecap="round" stroke-linejoin="round"/>
<path d="M34.0439 54.9128H49.6961" stroke="#C4B2C7" stroke-width="2" stroke-miterlimit="10" stroke-linecap="round"/>
<path d="M34.0439 60.1302H49.6961" stroke="#C4B2C7" stroke-width="2" stroke-miterlimit="10" stroke-linecap="round"/>
<path d="M25.0771 6.21737V5.38416C25.0805 4.22245 25.5435 3.1093 26.365 2.28784C27.1864 1.46639 28.2996 1.0034 29.4613 1H50.7993C51.961 1.0034 53.0742 1.46639 53.8956 2.28784C54.7171 3.1093 55.1801 4.22245 55.1835 5.38416V6.21737" stroke="#C4B2C7" stroke-width="2" stroke-linecap="round" stroke-linejoin="round"/>
</svg>
