<svg width="97" height="83" viewBox="0 0 97 83" fill="none" xmlns="http://www.w3.org/2000/svg">
<path d="M21.5996 40.2687H77.1374L70.656 20.9213" stroke="#C4B2C7" stroke-width="2" stroke-linecap="round" stroke-linejoin="round"/>
<path d="M39.4023 50.8931H59.6708" stroke="#C4B2C7" stroke-width="2" stroke-miterlimit="10" stroke-linecap="round"/>
<path d="M39.4023 56.8215H59.6708" stroke="#C4B2C7" stroke-width="2" stroke-miterlimit="10" stroke-linecap="round"/>
<path d="M14.6289 56.8214H23.6371V50.894" stroke="#C4B2C7" stroke-width="2" stroke-linecap="round" stroke-linejoin="round"/>
<path d="M73.1826 56.8214H82.1908V50.894" stroke="#C4B2C7" stroke-width="2" stroke-linecap="round" stroke-linejoin="round"/>
<path d="M17.433 74.1555H11.8254C9.64257 74.1555 7.87305 75.925 7.87305 78.1079C7.87305 80.2907 9.64257 82.0602 11.8254 82.0602H17.433C19.6158 82.0602 21.3853 80.2907 21.3853 78.1079C21.3853 75.925 19.6158 74.1555 17.433 74.1555Z" fill="#C4B2C7"/>
<path d="M84.9945 74.1555H79.3869C77.2041 74.1555 75.4346 75.925 75.4346 78.1079C75.4346 80.2907 77.2041 82.0602 79.3869 82.0602H84.9945C87.1773 82.0602 88.9469 80.2907 88.9469 78.1079C88.9469 75.925 87.1773 74.1555 84.9945 74.1555Z" fill="#C4B2C7"/>
<path d="M93.016 35.8968H89.2067C87.1709 35.8968 85.5205 37.5471 85.5205 39.583C85.5205 41.6188 87.1709 43.2691 89.2067 43.2691H93.016C95.0518 43.2691 96.7022 41.6188 96.7022 39.583C96.7022 37.5471 95.0518 35.8968 93.016 35.8968Z" fill="#C4B2C7"/>
<path d="M7.49549 36.3114H3.68615C1.65035 36.3114 0 37.9618 0 39.9976C0 42.0334 1.65035 43.6838 3.68615 43.6838H7.49549C9.5313 43.6838 11.1816 42.0334 11.1816 39.9976C11.1816 37.9618 9.5313 36.3114 7.49549 36.3114Z" fill="#C4B2C7"/>
<path d="M26.7617 10.6983C26.7617 5.36427 29.4191 1 32.6657 1H64.1529C67.4002 1 70.0569 5.36427 70.0569 10.6983" stroke="#C4B2C7" stroke-width="2" stroke-linecap="round" stroke-linejoin="round"/>
<path d="M11.4727 42.2827L16.0909 26.6001C18.6308 17.9747 26.942 10.9176 34.56 10.9176H48.4108" stroke="#C4B2C7" stroke-width="2" stroke-linecap="round" stroke-linejoin="round"/>
<path d="M85.348 42.2823L80.73 26.6001C78.1899 17.9747 69.8789 10.9176 62.2609 10.9176H48.4102" stroke="#C4B2C7" stroke-width="2" stroke-linecap="round" stroke-linejoin="round"/>
<path d="M49.0006 74.1555H12.1819C10.4293 74.1442 8.75234 73.4397 7.5174 72.196C6.28245 70.9523 5.58983 69.2705 5.59082 67.5178V51.6694C5.59082 48.074 7.59515 42.4913 11.2045 42.4913" stroke="#C4B2C7" stroke-width="2" stroke-linecap="round" stroke-linejoin="round"/>
<path d="M47.7012 74.1555H84.5199C86.2725 74.1442 87.9495 73.4397 89.1844 72.196C90.4194 70.9523 91.112 69.2705 91.111 67.5178V51.6694C91.111 48.074 89.1067 42.4913 85.4973 42.4913" stroke="#C4B2C7" stroke-width="2" stroke-linecap="round" stroke-linejoin="round"/>
</svg>
